<mxfile host="app.diagrams.net" modified="2023-04-02T22:56:02.120Z" agent="Mozilla/5.0 (Windows NT 10.0; Win64; x64) AppleWebKit/537.36 (KHTML, like Gecko) Chrome/111.0.0.0 Safari/537.36" etag="EI1k6uQVNVxu-jcLg1SP" version="21.1.2" type="device">
  <diagram id="wkcYH6kmhPDFkG4A7oAj" name="Page-1">
    <mxGraphModel dx="882" dy="596" grid="1" gridSize="10" guides="1" tooltips="1" connect="1" arrows="1" fold="1" page="1" pageScale="1" pageWidth="850" pageHeight="1100" math="0" shadow="0">
      <root>
        <mxCell id="0" />
        <mxCell id="1" parent="0" />
        <mxCell id="Ba-GDA7pnLdtUxyPhKPH-14" style="edgeStyle=orthogonalEdgeStyle;rounded=0;orthogonalLoop=1;jettySize=auto;html=1;exitX=1;exitY=0.5;exitDx=0;exitDy=0;entryX=0;entryY=0.5;entryDx=0;entryDy=0;" parent="1" source="Ba-GDA7pnLdtUxyPhKPH-1" target="Ba-GDA7pnLdtUxyPhKPH-2" edge="1">
          <mxGeometry relative="1" as="geometry" />
        </mxCell>
        <mxCell id="Ba-GDA7pnLdtUxyPhKPH-1" value="Searcher" style="rounded=1;whiteSpace=wrap;html=1;" parent="1" vertex="1">
          <mxGeometry x="40" y="80" width="120" height="60" as="geometry" />
        </mxCell>
        <mxCell id="Ba-GDA7pnLdtUxyPhKPH-16" style="edgeStyle=orthogonalEdgeStyle;rounded=0;orthogonalLoop=1;jettySize=auto;html=1;exitX=0.5;exitY=1;exitDx=0;exitDy=0;entryX=0.5;entryY=0;entryDx=0;entryDy=0;" parent="1" source="Ba-GDA7pnLdtUxyPhKPH-2" target="Ba-GDA7pnLdtUxyPhKPH-3" edge="1">
          <mxGeometry relative="1" as="geometry" />
        </mxCell>
        <mxCell id="Ba-GDA7pnLdtUxyPhKPH-2" value="Query rewriting" style="rounded=1;whiteSpace=wrap;html=1;" parent="1" vertex="1">
          <mxGeometry x="240" y="80" width="120" height="60" as="geometry" />
        </mxCell>
        <mxCell id="Ba-GDA7pnLdtUxyPhKPH-17" style="edgeStyle=orthogonalEdgeStyle;rounded=0;orthogonalLoop=1;jettySize=auto;html=1;exitX=0.5;exitY=1;exitDx=0;exitDy=0;entryX=0.5;entryY=0;entryDx=0;entryDy=0;" parent="1" source="Ba-GDA7pnLdtUxyPhKPH-3" target="Ba-GDA7pnLdtUxyPhKPH-4" edge="1">
          <mxGeometry relative="1" as="geometry" />
        </mxCell>
        <mxCell id="Ba-GDA7pnLdtUxyPhKPH-3" value="Query understanding" style="rounded=1;whiteSpace=wrap;html=1;" parent="1" vertex="1">
          <mxGeometry x="240" y="200" width="120" height="60" as="geometry" />
        </mxCell>
        <mxCell id="TuOWki7kREgUKSknkmO8-2" style="edgeStyle=orthogonalEdgeStyle;rounded=0;orthogonalLoop=1;jettySize=auto;html=1;exitX=1;exitY=0.5;exitDx=0;exitDy=0;entryX=0;entryY=0.5;entryDx=0;entryDy=0;" edge="1" parent="1" source="Ba-GDA7pnLdtUxyPhKPH-4" target="Ba-GDA7pnLdtUxyPhKPH-6">
          <mxGeometry relative="1" as="geometry" />
        </mxCell>
        <mxCell id="Ba-GDA7pnLdtUxyPhKPH-4" value="Document selection" style="rounded=1;whiteSpace=wrap;html=1;" parent="1" vertex="1">
          <mxGeometry x="240" y="320" width="120" height="60" as="geometry" />
        </mxCell>
        <mxCell id="TuOWki7kREgUKSknkmO8-6" style="edgeStyle=orthogonalEdgeStyle;rounded=0;orthogonalLoop=1;jettySize=auto;html=1;exitX=1;exitY=0.5;exitDx=0;exitDy=0;entryX=0;entryY=0.5;entryDx=0;entryDy=0;" edge="1" parent="1" source="Ba-GDA7pnLdtUxyPhKPH-6" target="Ba-GDA7pnLdtUxyPhKPH-8">
          <mxGeometry relative="1" as="geometry" />
        </mxCell>
        <mxCell id="Ba-GDA7pnLdtUxyPhKPH-6" value="Ranker" style="rounded=1;whiteSpace=wrap;html=1;" parent="1" vertex="1">
          <mxGeometry x="440" y="320" width="120" height="60" as="geometry" />
        </mxCell>
        <mxCell id="TuOWki7kREgUKSknkmO8-7" style="edgeStyle=orthogonalEdgeStyle;rounded=0;orthogonalLoop=1;jettySize=auto;html=1;exitX=0.5;exitY=0;exitDx=0;exitDy=0;entryX=0.5;entryY=1;entryDx=0;entryDy=0;" edge="1" parent="1" source="Ba-GDA7pnLdtUxyPhKPH-8" target="TuOWki7kREgUKSknkmO8-4">
          <mxGeometry relative="1" as="geometry" />
        </mxCell>
        <mxCell id="Ba-GDA7pnLdtUxyPhKPH-8" value="Blender" style="rounded=1;whiteSpace=wrap;html=1;" parent="1" vertex="1">
          <mxGeometry x="640" y="320" width="120" height="60" as="geometry" />
        </mxCell>
        <mxCell id="TuOWki7kREgUKSknkmO8-1" style="edgeStyle=orthogonalEdgeStyle;rounded=0;orthogonalLoop=1;jettySize=auto;html=1;exitX=0.5;exitY=1;exitDx=0;exitDy=0;entryX=0.5;entryY=0;entryDx=0;entryDy=0;" edge="1" parent="1" source="Ba-GDA7pnLdtUxyPhKPH-12" target="Ba-GDA7pnLdtUxyPhKPH-6">
          <mxGeometry relative="1" as="geometry" />
        </mxCell>
        <mxCell id="Ba-GDA7pnLdtUxyPhKPH-12" value="Training data generation" style="rounded=1;whiteSpace=wrap;html=1;" parent="1" vertex="1">
          <mxGeometry x="440" y="200" width="120" height="60" as="geometry" />
        </mxCell>
        <mxCell id="Ba-GDA7pnLdtUxyPhKPH-15" value="query" style="text;html=1;align=center;verticalAlign=middle;resizable=0;points=[];autosize=1;strokeColor=none;fillColor=none;" parent="1" vertex="1">
          <mxGeometry x="175" y="85" width="50" height="30" as="geometry" />
        </mxCell>
        <mxCell id="Ba-GDA7pnLdtUxyPhKPH-24" value="User engagement data" style="text;html=1;strokeColor=none;fillColor=none;align=center;verticalAlign=middle;whiteSpace=wrap;rounded=0;" parent="1" vertex="1">
          <mxGeometry x="525" y="170" width="140" height="30" as="geometry" />
        </mxCell>
        <mxCell id="TuOWki7kREgUKSknkmO8-5" style="edgeStyle=orthogonalEdgeStyle;rounded=0;orthogonalLoop=1;jettySize=auto;html=1;exitX=0;exitY=0.5;exitDx=0;exitDy=0;entryX=1;entryY=0.5;entryDx=0;entryDy=0;" edge="1" parent="1" source="TuOWki7kREgUKSknkmO8-4" target="Ba-GDA7pnLdtUxyPhKPH-12">
          <mxGeometry relative="1" as="geometry" />
        </mxCell>
        <mxCell id="TuOWki7kREgUKSknkmO8-4" value="Search engine page" style="rounded=1;whiteSpace=wrap;html=1;" vertex="1" parent="1">
          <mxGeometry x="640" y="200" width="120" height="60" as="geometry" />
        </mxCell>
        <mxCell id="TuOWki7kREgUKSknkmO8-8" value="Returned candidates" style="text;html=1;strokeColor=none;fillColor=none;align=center;verticalAlign=middle;whiteSpace=wrap;rounded=0;" vertex="1" parent="1">
          <mxGeometry x="340" y="290" width="120" height="30" as="geometry" />
        </mxCell>
        <mxCell id="TuOWki7kREgUKSknkmO8-9" value="Ranker results" style="text;html=1;strokeColor=none;fillColor=none;align=center;verticalAlign=middle;whiteSpace=wrap;rounded=0;" vertex="1" parent="1">
          <mxGeometry x="560" y="290" width="80" height="30" as="geometry" />
        </mxCell>
        <mxCell id="TuOWki7kREgUKSknkmO8-15" style="edgeStyle=orthogonalEdgeStyle;rounded=0;orthogonalLoop=1;jettySize=auto;html=1;exitX=0.5;exitY=0;exitDx=0;exitDy=0;entryX=0.25;entryY=1;entryDx=0;entryDy=0;" edge="1" parent="1" source="TuOWki7kREgUKSknkmO8-10" target="Ba-GDA7pnLdtUxyPhKPH-6">
          <mxGeometry relative="1" as="geometry" />
        </mxCell>
        <mxCell id="TuOWki7kREgUKSknkmO8-16" style="edgeStyle=orthogonalEdgeStyle;rounded=0;orthogonalLoop=1;jettySize=auto;html=1;exitX=1;exitY=0.5;exitDx=0;exitDy=0;entryX=0;entryY=0.5;entryDx=0;entryDy=0;" edge="1" parent="1" source="TuOWki7kREgUKSknkmO8-10" target="TuOWki7kREgUKSknkmO8-12">
          <mxGeometry relative="1" as="geometry" />
        </mxCell>
        <mxCell id="TuOWki7kREgUKSknkmO8-10" value="Feature store" style="rounded=1;whiteSpace=wrap;html=1;" vertex="1" parent="1">
          <mxGeometry x="240" y="440" width="120" height="60" as="geometry" />
        </mxCell>
        <mxCell id="TuOWki7kREgUKSknkmO8-18" style="edgeStyle=orthogonalEdgeStyle;rounded=0;orthogonalLoop=1;jettySize=auto;html=1;exitX=1;exitY=0.5;exitDx=0;exitDy=0;entryX=0;entryY=0.5;entryDx=0;entryDy=0;" edge="1" parent="1" source="TuOWki7kREgUKSknkmO8-11" target="TuOWki7kREgUKSknkmO8-10">
          <mxGeometry relative="1" as="geometry" />
        </mxCell>
        <mxCell id="TuOWki7kREgUKSknkmO8-11" value="Feature pipeline" style="rounded=1;whiteSpace=wrap;html=1;" vertex="1" parent="1">
          <mxGeometry x="40" y="440" width="120" height="60" as="geometry" />
        </mxCell>
        <mxCell id="TuOWki7kREgUKSknkmO8-17" style="edgeStyle=orthogonalEdgeStyle;rounded=0;orthogonalLoop=1;jettySize=auto;html=1;exitX=1;exitY=0.5;exitDx=0;exitDy=0;entryX=0;entryY=0.5;entryDx=0;entryDy=0;" edge="1" parent="1" source="TuOWki7kREgUKSknkmO8-12" target="TuOWki7kREgUKSknkmO8-13">
          <mxGeometry relative="1" as="geometry" />
        </mxCell>
        <mxCell id="TuOWki7kREgUKSknkmO8-12" value="Model training" style="rounded=1;whiteSpace=wrap;html=1;" vertex="1" parent="1">
          <mxGeometry x="440" y="440" width="120" height="60" as="geometry" />
        </mxCell>
        <mxCell id="TuOWki7kREgUKSknkmO8-14" style="edgeStyle=orthogonalEdgeStyle;rounded=0;orthogonalLoop=1;jettySize=auto;html=1;exitX=0.5;exitY=0;exitDx=0;exitDy=0;entryX=0.75;entryY=1;entryDx=0;entryDy=0;" edge="1" parent="1" source="TuOWki7kREgUKSknkmO8-13" target="Ba-GDA7pnLdtUxyPhKPH-6">
          <mxGeometry relative="1" as="geometry" />
        </mxCell>
        <mxCell id="TuOWki7kREgUKSknkmO8-13" value="Model store" style="rounded=1;whiteSpace=wrap;html=1;" vertex="1" parent="1">
          <mxGeometry x="640" y="440" width="120" height="60" as="geometry" />
        </mxCell>
      </root>
    </mxGraphModel>
  </diagram>
</mxfile>
